<svg width="225" height="66" viewBox="0 0 225 66" fill="none" xmlns="http://www.w3.org/2000/svg" xmlns:xlink="http://www.w3.org/1999/xlink">
  <symbol id="logo-symbol-wordmark">
    <defs>
      <filter id="invert">
        <feColorMatrix
          in="SourceGraphic"
          type="matrix"
          values="-1 0 0 0 1
                  0 -1 0 0 1
                  0 0 -1 0 1
                  0 0 0 1 0" />
      </filter>
    </defs>
    <path d="M0.700684 0.840088H224.688V66H0.700684V0.840088Z" fill="currentColor"/>
    <path d="M214.631 47.6107C214.194 47.7361 213.824 47.8045 213.455 47.8045C212.145 47.8045 211.529 47.2344 211.529 45.594V33.2079C211.529 26.7025 206.433 23.5349 200.408 23.5349C195.804 23.5349 193.33 24.105 188.413 26.1209L187.316 32.6841L193.711 33.3789L194.618 30.1657C195.928 29.4709 197.228 29.3455 198.907 29.3455C203.443 29.3455 203.51 32.821 203.51 35.7263V36.6711C202.077 36.4781 200.464 36.4211 198.907 36.4211C192.512 36.4211 185.86 38.0615 185.86 45.08C185.86 51.0161 190.451 53.238 194.494 53.238C199.03 53.238 201.886 50.4581 203.499 47.5528C203.868 51.0275 205.918 53.238 209.648 53.238C211.383 53.238 213.186 52.7371 214.676 51.9047L214.631 47.6098V47.6107ZM197.429 47.4282C195.009 47.4282 194.136 45.9703 194.136 44.1352C194.136 41.036 196.623 40.2158 199.478 40.2158C200.778 40.2158 202.211 40.4097 203.521 40.5921C203.331 45.3431 200.285 47.4282 197.429 47.4282V47.4282ZM186.666 9.12231L174.548 52.6125H166.653L178.77 9.12313H186.666V9.12231ZM170.394 9.12231L158.276 52.6125H150.391L162.509 9.12313H170.394V9.12231ZM136.75 24.1058H145.139V34.3368H136.75V24.1058V24.1058ZM136.75 42.3694H145.139V52.6125H136.75V42.3694ZM124.543 41.9931L130.882 42.6202L129.146 52.6125H104.664L103.858 48.3168L119.268 30.3034H110.51L109.268 34.7245L103.488 34.0859L104.485 24.0944H129.09L129.718 28.3893L114.172 46.4142H123.244L124.543 41.9931V41.9931ZM84.3936 23.5365C74.3251 23.5365 69.3532 30.4288 69.3532 38.7693C69.3532 47.8729 75.3218 53.2388 83.9564 53.2388C92.9048 53.2388 99.3674 47.4852 99.3674 38.3824C99.3674 30.4174 94.4508 23.5357 84.3936 23.5357V23.5365ZM84.203 46.9835C79.8581 46.9835 77.618 43.1896 77.618 38.2561C77.618 32.8788 80.1599 29.791 84.2711 29.791C88.0555 29.791 91.1019 32.3771 91.1019 38.1315C91.1019 43.5659 88.3694 46.9835 84.203 46.9835ZM62.1405 46.4142H65.8698V52.6125H54.1216V36.5587C54.1216 31.6253 52.5092 29.7332 49.3396 29.7332C45.487 29.7332 43.9306 32.5139 43.9306 36.5017V46.4142H47.6599V52.6125H35.9229V36.5587C35.9229 31.6253 34.3097 29.7332 31.1408 29.7332C27.2883 29.7332 25.7311 32.5139 25.7311 36.5017V46.4142H31.0736V52.6125H13.9941V46.4142H17.7242V30.292H13.9941V24.0936H25.7311V28.3893C27.4116 25.3594 30.3346 23.5243 34.2432 23.5243C38.2863 23.5243 42.0043 25.484 43.3814 29.6542C44.9386 25.8603 48.1074 23.5243 52.5204 23.5243C57.5482 23.5243 62.1517 26.6235 62.1517 33.3797V46.4142H62.1405Z" fill="currentColor" filter="url(#invert)"/>
  </symbol>
  <use xlink:href="#logo-symbol-wordmark"/>
</svg>
